<svg id="sign" xmlns="http://www.w3.org/2000/svg" viewBox="0 0 264.2 319.64">
  <defs>
    <style>
      .cls-1 {
        fill: #d3b190;
      }

      .cls-1, .cls-2, .cls-3 {
        stroke: #000;
        stroke-miterlimit: 10;
      }

      .cls-2 {
        fill: none;
      }

      .cls-3 {
        fill: #fff;
      }
    </style>
  </defs>
  <title>guess_sign</title>
  <path id="outline" class="cls-1" d="M12.75,79.33s105-11.58,113-12.08l-4-65.75,9.5,10L140,12s12.75,12.25,14.5,19.5L156,59s86.5-3,98.5,6.75l6.25.5v6l3.25.25s-.5,13.75-5.25,19c0,0,3.25,4.25,3.25,8.75s4.75,52-.75,50.5c0,0,1,28.25-2.25,31.5S162.75,193,162.75,193l7.5,123.5L142,319.25,134.5,196.5s-60,11.75-102.25,7.75v-6.5l-3.75-.25-.5-6-6.5-2-3.25-.25,2.25-2-.25-2.75-7.5-1v-4.75l-2.5-.5v-2l-5-.25v-4H10v-2.25l-9,.75s1.5-5.25,4.75-5.75a9.93,9.93,0,0,0,2-5.5H2.25s9.5-30.25,19.5-40.75c0,0,2.67-2-1.33-3.5S12.75,79.33,12.75,79.33Z" transform="translate(-0.32 -0.16)"/>
  <g id="fine_details">
    <line class="cls-2" x1="134.18" y1="196.34" x2="162.43" y2="192.84"/>
    <path class="cls-2" d="M125.75,67.25s11.17-1.92,16.67-6.58A30.27,30.27,0,0,1,156,59" transform="translate(-0.32 -0.16)"/>
    <path class="cls-2" d="M22.62,117s105.13-16.75,113.63-12c0,0,1.5,1.25-.87,1.88s6.13,1.3,10.13-2.72S261.38,84.88,258.75,91.5" transform="translate(-0.32 -0.16)"/>
    <path class="cls-2" d="M18.25,189.25s70-15.25,74.17-17.42" transform="translate(-0.32 -0.16)"/>
    <path class="cls-2" d="M159.58,157.33s39.33-2.67,43-4.17" transform="translate(-0.32 -0.16)"/>
    <path class="cls-2" d="M209.08,162.33s10.67.67,14.33-2.67,12.67-2.33,12.67-2.33" transform="translate(-0.32 -0.16)"/>
    <path d="M56.25,161.33s21.5,3.22,51.17-4.14,47.67-5.53,47.67-5.53,11.5,2.67,41.17-10.33c0,0,5-4.17-22.67,2a373.46,373.46,0,0,1-52,7.66s-35.67,2.67-58.5,7.5C51.58,161.33,56.25,161.33,56.25,161.33Z" transform="translate(-0.32 -0.16)"/>
    <line class="cls-2" x1="178.43" y1="80.84" x2="202.26" y2="80.84"/>
    <path class="cls-2" d="M130.92,78.33a27.15,27.15,0,0,1,8.67-2.5,27,27,0,0,0,9-2.83" transform="translate(-0.32 -0.16)"/>
    <path d="M262.49,108c-5.26,4.47-78.91,13.7-90.91,12.86s-75.5,12.67-75.5,12.67,24-10.84,71.5-16.5S262,100.25,262,100.25" transform="translate(-0.32 -0.16)"/>
    <path class="cls-2" d="M216.38,135.25s9.88,0,12.63-1.75,11.25-1.25,11.25-1.25" transform="translate(-0.32 -0.16)"/>
    <path class="cls-2" d="M150.83,194.75s2.25,10.75,1.17,16.67" transform="translate(-0.32 -0.16)"/>
    <path class="cls-2" d="M154.5,213.75s1.92-.33,1.58,4" transform="translate(-0.32 -0.16)"/>
    <line class="cls-2" x1="159.43" y1="243.17" x2="164.1" y2="312.67"/>
    <path class="cls-2" d="M138.92,220.5s10.54,92.54,8.85,98.19" transform="translate(-0.32 -0.16)"/>
    <path class="cls-2" d="M6.55,147.1s13.44-.94,16.07-2.27,10.38-5.42,22.8-3.25" transform="translate(-0.32 -0.16)"/>
    <path class="cls-2" d="M67.25,138s12-2.87,18-2.87" transform="translate(-0.32 -0.16)"/>
    <line class="cls-2" x1="14.86" y1="97.06" x2="44.3" y2="97.06"/>
    <path class="cls-2" d="M105.63,84.25s14.5,1.13,16.5-1.25,3.63-2,3.63-2" transform="translate(-0.32 -0.16)"/>
    <line class="cls-2" x1="132.6" y1="60.42" x2="132.18" y2="50.51"/>
    <line class="cls-2" x1="146.43" y1="36.84" x2="146.43" y2="33.76"/>
    <path d="M125.27,59.43s4.48-48.93-2-56.34" transform="translate(-0.32 -0.16)"/>
    <path class="cls-2" d="M158.75,317.62s-.83-16.12-2-18.87" transform="translate(-0.32 -0.16)"/>
    <path class="cls-2" d="M146.75,224.17a52.35,52.35,0,0,1,1.2,13" transform="translate(-0.32 -0.16)"/>
    <path class="cls-2" d="M32.25,197.75s213.25-15.75,229-47" transform="translate(-0.32 -0.16)"/>
    <path class="cls-2" d="M261.25,159.79s-10.83,10.54-22.5,12" transform="translate(-0.32 -0.16)"/>
    <path class="cls-2" d="M151.56,304.75s-1.94-31.5,0-38.25,3.69-33.42,2.94-35.83" transform="translate(-0.32 -0.16)"/>
    <path class="cls-2" d="M140.88,52.75s-1.12-20.25,2.13-24-2.12-13.25-2.12-13.25" transform="translate(-0.32 -0.16)"/>
    <line class="cls-2" x1="150.68" y1="31.09" x2="152.43" y2="55.46"/>
    <path class="cls-2" d="M136.75,13.75s4.5,9.25,4.13,10.75-2,5.25-2.05,7.75" transform="translate(-0.32 -0.16)"/>
    <path class="cls-2" d="M128.75,13.75s8.5,33.5,8,39" transform="translate(-0.32 -0.16)"/>
    <path class="cls-2" d="M128.75,63s-.12-21.38,2.17-26" transform="translate(-0.32 -0.16)"/>
    <path class="cls-2" d="M138.82,60.58s4.43-4.83,7.93-5,2.25-9.25,0-12.19" transform="translate(-0.32 -0.16)"/>
    <line class="cls-2" x1="139.43" y1="198.84" x2="146.43" y2="246.34"/>
    <line class="cls-2" x1="147.63" y1="211.26" x2="151.24" y2="222.59"/>
    <path class="cls-2" d="M159.58,237.17s2.17-7.58-1.58-13" transform="translate(-0.32 -0.16)"/>
    <path class="cls-2" d="M159.1,196.5s.06,20.25,1.1,21.25" transform="translate(-0.32 -0.16)"/>
  </g>
  <rect id="sign_sheet" class="cls-3" x="26.9" y="80" width="224.48" height="102.56" transform="translate(-11.56 12.88) rotate(-5.16)"/>
</svg>
